# xmcd
#
# Track frame offsets:
#	150
#	17370
#	31910
#	47379
#	65027
#	81061
#	97222
#	114714
#	131509
#	145377
#	161630
#	177709
#	195832
#	211205
#	238732
#
# Disc length: 4440
#
# Revision: 2
# Processed by: cddbd v1.5.1PL0 Copyright (c) Steve Scherf et al.
# Submitted via: audiograbber 1.83.01
# Normalized: r1:DSETVAR1
#
DISCID=ce11560f
DTITLE=Various Artist - Goldene Schlagerparade 3/2004
DYEAR=2004
DGENRE=Schlager
TTITLE0=Roland Kaiser - Ich liebe Dich so wie du bist
TTITLE1=Bernhard Brink - Ich will die Nacht mit Dir
TTITLE2=Yvette - Denk nicht ich lieb dich
TTITLE3=Nino de Angelo and Francine Jordi - Und wenn ich abends einschlaf
TTITLE4=Semino Rossi - Alle Rosen dieser Welt
TTITLE5=Kurt Elsasser - Ich bin verliebt
TTITLE6=Jeannine - Gefühle an die Macht
TTITLE7=Jens Bogner - Samstag Abend
TTITLE8=Golden Sunshine - Heut Abend schlaf ich mit Dir (in meinen Armen ein)
TTITLE9=Howard Carpendale - Emotionen
TTITLE10=Tattoo - Suzanne
TTITLE11=Peter Cornelius - Schatten und Licht
TTITLE12=Steirerbluat - I gib niemals auf
TTITLE13=Vicky Leandros - Zauber einer Nacht
TTITLE14=data - Daten-CD
EXTD=
EXTT0=
EXTT1=
EXTT2=
EXTT3=
EXTT4=
EXTT5=
EXTT6=
EXTT7=
EXTT8=
EXTT9=
EXTT10=
EXTT11=
EXTT12=
EXTT13=
EXTT14=
PLAYORDER=
